<?xml version="1.0" encoding="UTF-8" standalone="no"?>
<svg
   xmlns:dc="http://purl.org/dc/elements/1.1/"
   xmlns:cc="http://creativecommons.org/ns#"
   xmlns:rdf="http://www.w3.org/1999/02/22-rdf-syntax-ns#"
   xmlns:svg="http://www.w3.org/2000/svg"
   xmlns="http://www.w3.org/2000/svg"
   xmlns:sodipodi="http://sodipodi.sourceforge.net/DTD/sodipodi-0.dtd"
   xmlns:inkscape="http://www.inkscape.org/namespaces/inkscape"
   width="210mm"
   height="297mm"
   viewBox="0 0 210 297"
   version="1.1"
   id="svg8"
   inkscape:version="1.0.1 (3bc2e813f5, 2020-09-07)"
   sodipodi:docname="header.svg">
  <defs
     id="defs2">
    <clipPath
       clipPathUnits="userSpaceOnUse"
       id="clipPath26">
      <path
         d="M 115.6921,123.1336 H 114.7068 -6e-4 V 33.2254 C 4.2474,29.9546 13.1675,29.787 17.4886,26.7996 26.1884,20.3511 28.1458,12.5943 31.928,8.6905 43.9792,-3.7854 75.767,5.5018 99.6233,0.9108 c 2.9271,-0.8518 8.5729,-1.0143 15.5758,-0.8561 7.0033,-0.1582 12.6494,0.0043 15.5764,0.8561 23.8561,4.591 55.6441,-4.6962 67.6951,7.7797 3.7825,3.9038 5.7398,11.6606 14.4396,18.1091 4.2781,2.9577 13.0629,3.1518 17.36,6.3295 v 90.0045 z"
         clip-rule="evenodd"
         id="path24" />
    </clipPath>
    <linearGradient
       x1="114.93"
       y1="52.119999"
       x2="114.93"
       y2="152.62"
       gradientUnits="userSpaceOnUse"
       spreadMethod="pad"
       id="linearGradient32"
       gradientTransform="matrix(0.35277776,0,0,-0.35277776,62.94848,45.910011)">
      <stop
         style="stop-opacity:1;stop-color:#0f87ff"
         offset="0"
         id="stop28" />
      <stop
         style="stop-opacity:1;stop-color:#05dbff"
         offset="1"
         id="stop30" />
    </linearGradient>
  </defs>
  <sodipodi:namedview
     id="base"
     pagecolor="#ffffff"
     bordercolor="#666666"
     borderopacity="1.0"
     inkscape:pageopacity="0.0"
     inkscape:pageshadow="2"
     inkscape:zoom="0.35"
     inkscape:cx="400"
     inkscape:cy="560"
     inkscape:document-units="mm"
     inkscape:current-layer="layer1"
     inkscape:document-rotation="0"
     showgrid="false"
     inkscape:window-width="1566"
     inkscape:window-height="1030"
     inkscape:window-x="128"
     inkscape:window-y="0"
     inkscape:window-maximized="0" />
  <metadata
     id="metadata5">
    <rdf:RDF>
      <cc:Work
         rdf:about="">
        <dc:format>image/svg+xml</dc:format>
        <dc:type
           rdf:resource="http://purl.org/dc/dcmitype/StillImage" />
        <dc:title></dc:title>
      </cc:Work>
    </rdf:RDF>
  </metadata>
  <g
     inkscape:label="Layer 1"
     inkscape:groupmode="layer"
     id="layer1">
    <path
       d="M 103.76208,2.471215 H 103.41449 62.94827 V 34.18883 c 1.4986,1.153863 4.64541,1.21299 6.1698,2.266878 3.06909,2.274888 3.75962,5.011314 5.0939,6.388489 4.25139,4.40122 15.46542,1.124903 23.88139,2.744505 1.03262,0.300495 3.02433,0.357822 5.4948,0.302013 2.47061,0.05581 4.46243,-0.0016 5.49501,-0.302013 8.4159,-1.619602 19.63,1.656715 23.88132,-2.744505 1.33438,-1.377175 2.02488,-4.113601 5.09397,-6.388489 1.50922,-1.043411 4.6083,-1.111885 6.12423,-2.232906 V 2.471215 Z"
       style="fill:url(#linearGradient32);fill-rule:evenodd;stroke:none;stroke-width:0.352777"
       id="path34" />
  </g>
</svg>
